PathFileType	4	(X/Y/Z)	Patient4_TMGait_0pt4_03_right_33.trc.trc
DataRate	CameraRate	NumFrames	NumMarkers	Units	OrigDataRate	OrigDataStartFrame	OrigNumFrames
73.684210526316	73.684210526316	5	33	mm	73.684210526316	89	       141
Frame#	Time	Sacral			L.Shoulder			Chest			R.Shoulder			Neck			R.ASIS			L.ASIS			R.Thigh.Superior			R.Thigh.Lateral			R.Thigh.Inferior			R.Patella			L.Thigh.Superior			L.Thigh.Lateral			L.Thigh.Inferior			L.Patella			L.Shank.Superior			L.Shank.Lateral			L.Shank.Inferior			R.Shank.Superior			R.Shank.Lateral			R.Shank.Inferior			R.Heel			R.Midfoot.Superior			R.Midfoot.Lateral			R.Toe			L.Heel			L.Midfoot.Lateral			L.Midfoot.Superior			L.Toe			L.Elbow			L.Wrist			R.Elbow			R.Wrist			
		X1	Y1	Z1	X2	Y2	Z2	X3	Y3	Z3	X4	Y4	Z4	X5	Y5	Z5	X6	Y6	Z6	X7	Y7	Z7	X8	Y8	Z8	X9	Y9	Z9	X10	Y10	Z10	X11	Y11	Z11	X12	Y12	Z12	X13	Y13	Z13	X14	Y14	Z14	X15	Y15	Z15	X16	Y16	Z16	X17	Y17	Z17	X18	Y18	Z18	X19	Y19	Z19	X20	Y20	Z20	X21	Y21	Z21	X22	Y22	Z22	X23	Y23	Z23	X24	Y24	Z24	X25	Y25	Z25	X26	Y26	Z26	X27	Y27	Z27	X28	Y28	Z28	X29	Y29	Z29	X30	Y30	Z30	X31	Y31	Z31	X32	Y32	Z32	X33	Y33	Z33	

89	44.094285714286	871.304670274076	1006.640894592787	447.265399602073	1021.979179079345	1430.338813838922	240.195785301114	1144.501792213265	1369.687016886987	389.916367722100	1080.127021463432	1445.067801090717	571.146467502071	1018.512040169799	1495.265007485289	395.847527222054	1107.434954332709	942.753016379939	544.026523590149	1073.167311944093	961.726111479484	273.162305852879	1134.987180763656	734.722868252300	525.335196554055	1053.666238468205	629.720782475571	597.449774922394	1126.875153887088	567.487313527617	520.692606664799	1117.882437952053	463.394921897506	542.780833924018	1139.256156705701	759.779173088294	300.545755820179	1059.376141565516	635.643055891051	244.382368507705	1155.374213686984	566.950860521298	301.118160748577	1162.455010598000	497.298052845794	309.461356667437	1138.286558355967	423.213675847662	302.692829309045	1051.294131264616	305.082359551738	256.147271927308	1111.447283100098	195.477606916479	322.542023238228	1047.880573994779	392.896097901427	552.188519185694	935.622556335831	339.492559957623	618.485734276155	930.621710372595	230.219949410309	566.652054289755	738.027520708716	133.571109342269	544.514370394235	912.890058719610	112.642712242073	583.085825401310	808.510384649229	89.912329741315	618.398747768570	1000.665342026616	34.367179889633	611.516110383453	992.917592058682	38.421789566015	371.462684015061	1061.355492128873	35.306979522117	286.137995377713	1145.616754458356	97.053878457529	308.840309524881	1272.387682644665	46.708599867191	271.416241830052	981.356269357523	1077.175914507260	129.371166908706	1060.881907044345	828.538042361771	105.157348682698	1141.084911992188	1106.052685144959	701.545695513817	1349.842625752169	956.234089778203	668.503817030889	
90	44.107857142857	870.502922193343	1006.667767342642	443.339136446321	1023.405525679369	1430.452378295264	236.699812075731	1144.503199986739	1369.805865941534	387.577355362597	1078.579778960499	1445.221396592257	568.225597258046	1018.415349411230	1495.496347590705	392.333608314534	1106.234999746492	943.150264130366	541.597301684340	1073.621788809101	961.935456391248	270.616011345665	1139.743694600643	737.139055078524	522.921736132965	1061.687991577625	630.303833026303	595.276765236760	1137.085453610236	569.526354154745	518.843239575218	1129.570525401136	464.133378282506	541.612809913915	1138.281875980390	758.970596135564	298.153084311845	1057.601288340712	635.572628643354	242.058796458908	1152.594610902599	566.200604564155	299.404794527443	1159.005586802609	496.603109881250	307.946918812173	1134.631283860077	422.616973723416	301.351133760509	1047.417879828691	304.654128915572	255.014939334162	1106.735458333024	195.075780756850	322.043508681329	1057.681998149564	394.198031365758	550.972704651364	943.647930345839	344.658803646296	617.332116772822	935.484274897611	235.323400628318	566.375937219819	740.129147942869	147.119365631508	544.512546273065	913.554938290988	116.642765309518	582.941225011064	808.070709822054	99.680148615328	618.291182015192	996.228147965904	33.430040045153	611.516945143274	987.460403965840	38.422246054127	371.398200568129	1055.878307827869	35.242492293042	286.058692758196	1140.252407156394	96.839675347533	308.795566369599	1267.023109254986	46.206544880862	271.379376084387	989.279619106993	1077.547221977187	122.860948494034	1075.459874701505	831.305662766885	96.431757007701	1133.361383173448	1105.131679118490	699.187641291761	1331.298871612472	939.743039097439	668.762776810532	
91	44.121428571429	869.529421290447	1006.572720911245	439.563078289217	1024.789496784405	1430.433521305851	233.405684689859	1144.437218105605	1369.760625769605	385.444916890151	1076.971274670385	1445.213590672339	565.507104931981	1018.323527584871	1495.643148122614	388.967657704529	1104.945498240822	943.459758956708	539.358239430304	1073.888594334073	962.042568343610	268.227078833457	1144.489641130032	739.816295450927	520.534778407118	1069.833004187331	631.171585843739	593.132997689522	1147.326844844626	571.975012248220	516.958713886365	1141.399617300526	465.379495891774	540.220263813736	1137.239842837086	758.222517233757	295.950207258135	1055.907271612751	635.495053575530	239.816432031427	1149.947757565576	565.493681126847	297.757963102525	1155.725482366006	495.909366920234	306.461814757987	1131.117182335032	422.007309105375	300.053151935350	1043.642769414859	304.249564653533	253.881320651419	1102.089956490679	194.674993053799	321.549505244055	1067.797551803312	395.892173746392	549.598969466189	952.217797353066	350.112925602321	616.109210446213	940.920996846105	240.829668164496	565.992123449012	743.239363856561	161.115954172857	544.461107661347	914.885240067812	121.235989608473	582.723834253321	808.519653563535	110.038560038699	618.142606559280	992.306509683873	32.542381914869	611.427374259759	982.017825098616	38.432614603020	371.315274919329	1050.421079692406	35.194146542083	285.966591801663	1134.905847713668	96.645362568751	308.738365380086	1261.673580567200	45.720927062092	271.337030522745	997.325560672837	1077.999335394052	116.465354687962	1090.296052472223	834.420157755219	87.858422031204	1124.893203301640	1103.992491925779	696.769831883354	1311.300339428719	924.369583850468	669.213354807515	
92	44.135000000000	868.435407863071	1006.390171368067	435.965026778453	1026.101591647742	1430.323062296816	230.332092981970	1144.293291598933	1369.601089947396	383.525147600331	1075.295521046794	1445.086522020234	563.001275485760	1018.229406733112	1495.738972596344	385.775444953904	1103.607999782899	943.732592526740	537.312059087624	1073.988920615524	962.073518492579	266.001882434373	1149.083926987717	742.750839138655	518.156232738995	1077.917269324432	632.375694283217	591.021887637875	1157.361829200216	574.855423520358	515.020688110498	1153.155479670406	467.158760315595	538.622694258376	1136.165132727579	757.535991718836	293.865339828325	1054.242238836779	635.392772407678	237.698451795495	1147.434708433264	564.817764453380	296.151109494516	1152.632536456423	495.220940643001	305.017473828176	1127.755200327129	421.388922936425	298.818062978467	1039.963009100378	303.881729863491	252.778787925530	1097.509969284192	194.280920338117	321.070594481510	1078.036453859478	398.000266208375	548.099719675375	961.145257504374	355.775815177644	614.821959250332	946.860845247191	246.624372838551	565.510353016795	747.323791462998	175.125876203008	544.377498514239	916.961666097839	126.305121378931	582.443402755948	809.939946419120	120.633831956933	617.944209868829	989.145525853552	31.825505941103	611.176277546733	976.591660234484	38.453508041320	371.217263502793	1044.985061205455	35.162515182804	285.864783576338	1129.575972339267	96.474148281803	308.669208573901	1256.337435246385	45.260764018542	271.288115964587	1005.443555496916	1078.572367233649	110.226738518419	1105.346216702707	837.945834470666	79.494381016047	1115.631550653063	1102.715837307254	694.298428249319	1290.024832834698	910.268545483929	669.824101683635	
93	44.148571428571	867.276039638892	1006.165804641264	432.568465044123	1027.330821271956	1430.174070390771	227.488686927225	1144.070103107065	1369.384653738731	381.819025169360	1073.549235135501	1444.891752267280	560.709668590206	1018.130054210308	1495.820742668385	382.783966099327	1102.256998380437	944.026006211370	535.454083513778	1073.951051268696	962.058962518804	263.940242227500	1153.396205571223	745.925239217273	515.775885455044	1085.770815947564	633.947283247201	588.958983913675	1166.977352878513	578.165605243059	513.027688222075	1164.641061597096	469.474634853370	536.864862551485	1135.083631422687	756.901518855711	291.840279611880	1052.554710369989	635.256222707566	235.744391997479	1145.033916235320	564.160102476335	294.578995046521	1149.712675342419	494.540544302294	303.636791390976	1124.529164466261	420.768605253990	297.668352852936	1036.354354338025	303.560671978548	251.738374275316	1092.981244522845	193.899328121507	320.617872875821	1088.225403509623	400.519875671644	546.525957204297	970.250669294369	361.539046841236	613.487306446987	953.247864511002	252.551874087156	564.951990433317	752.325386992693	188.646967016123	544.288016768914	919.879312083646	131.666178474376	582.102759788158	812.411645237645	131.040025552617	617.692324231192	987.047861605233	31.403931750397	610.692470627407	971.179399411290	38.484631919333	371.108750301287	1039.567390948940	35.146615287688	285.757505497765	1124.258338428361	96.326507620303	308.590177851423	1251.009963995391	44.831146187245	271.233308558493	1013.563638432474	1079.316103567712	104.184798453469	1120.553743163846	841.959863477457	71.401470824232	1105.567771190124	1101.411164812964	691.788695032947	1267.681020937543	897.570068780403	670.544759817574	
